Plot: A fat Lawyer finds himself growing "Thinner" when an old gypsy man places a hex on him. Now the lawyer must call upon his friends in organized crime to help him persuade the gypsy to lift the curse. Time is running out for the desperate lawyer as he draws closer to his own death, and grows ever thinner.

 


Robert John Burke... Billy Halleck
Joe Mantegna ... Richie Ginelli
Lucinda Jenney ... Heidi Halleck
Michael Constantine... Tadzu Lempke
Kari Wuhrer ... Gina Lempke
Bethany Joy Galeotti... Linda Halleck (as Joie Lenz)
Time Winters ... Prosecutor
Howard Erskine ... Judge Phillips
Terrence Garmey ... Bailiff
Randy Jurgensen ... Court Clerk
Jeff Ware ... Max Duggenfield
Antonette Schwartzberg...Mama Ginelli
Terence Kava ... Gabe Lempke (as Terrence Kava)
Adriana Delphine... Gypsy Woman
Ruth Miller ... Billy's Secretary

 
http://www.imdb.com/title/tt0117894/

Video
ID : 0
Format : MPEG-4 Visual
Format profile : Simple@L1
Format settings, BVOP : No
Format settings, QPel : No
Format settings, GMC : No warppoints
Format settings, Matrix : Default (H.263)
Codec ID : DX50
Codec ID/Hint : DivX 5
Duration : 1h 31mn
Bit rate : 584 Kbps
Width : 512 pixels
Height : 384 pixels
Display aspect ratio : 4:3
Frame rate : 30.000 fps
Resolution : 8 bits
Colorimetry : 4:2:0
Scan type : Progressive
Bits/(Pixel*Frame) : 0.099
Stream size : 384 MiB (82%)
Writing library : Lavc51.39.0

Audio
ID : 1
Format : MPEG Audio
Format version : Version 1
Format profile : Layer 3
Codec ID : 55
Codec ID/Hint : MP3
Duration : 1h 31mn
Bit rate mode : Constant
Bit rate : 128 Kbps
Channel(s) : 2 channels
Sampling rate : 44.1 KHz
Stream size : 84.2 MiB (18%)
Alignment : Aligned on interleaves
Interleave, duration : 913 ms (27.38 video frames)
Interleave, preload duration : 209 ms



 
Genre: Horror | Thriller

